<svg xmlns="http://www.w3.org/2000/svg" version="1.1" xmlns:xlink="http://www.w3.org/1999/xlink" xmlns:svgjs="http://svgjs.dev/svgjs" width="1000" height="1007" viewBox="0 0 1000 1007"><g transform="matrix(1,0,0,1,0.07938693877554215,-1.424797872340207)"><svg viewBox="0 0 140 141" data-background-color="#ffffff" preserveAspectRatio="xMidYMid meet" height="1007" width="1000" xmlns="http://www.w3.org/2000/svg" xmlns:xlink="http://www.w3.org/1999/xlink"><g id="tight-bounds" transform="matrix(1,0,0,1,-0.011114171428573627,0.19949999999997203)"><svg viewBox="0 0 140.02222834285715 140.60052000000002" height="140.60052000000002" width="140.02222834285715"><g><svg viewBox="0 0 140.02222834285715 140.60052000000002" height="140.60052000000002" width="140.02222834285715"><g><svg viewBox="0 0 140.02222834285715 140.60052000000002" height="140.60052000000002" width="140.02222834285715"><g><path d="M0 140.601v-140.601h140.022v140.601z" fill="#4d7e3e" stroke="transparent" stroke-width="0" rx="0%" data-fill-palette-color="tertiary"></path><path d="M3.283 137.317v-134.034h133.456v134.034z" fill="#ffffff" stroke="transparent" stroke-width="0" rx="0%" data-fill-palette-color="quaternary"></path><path d="M9.85 130.751v-120.901h120.322v120.901z" fill="#4d7e3e" stroke="transparent" stroke-width="0" data-fill-palette-color="tertiary"></path></g><g transform="matrix(1,0,0,1,19.69973999999999,19.69974)" id="textblocktransform"><svg viewBox="0 0 100.62274834285716 101.20104" height="101.20104" width="100.62274834285716" id="textblock"><g><svg viewBox="0 0 100.62274834285716 101.20104" height="101.20104" width="100.62274834285716"><g transform="matrix(1,0,0,1,0,0)"><svg width="100.62274834285716" viewBox="3.9000000953674316 -35 34.79999923706055 35" height="101.20104" data-palette-color="#ffffff"><path d="M26.3 0L21.35-29.95 16.4 0 12.15 0 3.9-35 6.9-35 14.05-3.45 19.4-35 23.3-35 28.65-3.45 35.7-35 38.7-35 30.55 0 26.3 0Z" opacity="1" transform="matrix(1,0,0,1,0,0)" fill="#ffffff" class="wordmark-text-0" data-fill-palette-color="quaternary" id="text-0"></path></svg></g></svg></g></svg></g></svg></g><g></g></svg></g><defs></defs></svg><rect width="140.02222834285715" height="140.60052000000002" fill="none" stroke="none" visibility="hidden"></rect></g></svg></g></svg>