<svg xmlns="http://www.w3.org/2000/svg" version="1.1" xmlns:xlink="http://www.w3.org/1999/xlink" xmlns:svgjs="http://svgjs.dev/svgjs" width="1000" height="154" viewBox="0 0 1000 154"><g transform="matrix(1,0,0,1,-0.0472904858381753,-0.49982456140351417)"><svg viewBox="0 0 368 57" data-background-color="#111111" preserveAspectRatio="xMidYMid meet" height="154" width="1000" xmlns="http://www.w3.org/2000/svg" xmlns:xlink="http://www.w3.org/1999/xlink"><g id="tight-bounds" transform="matrix(1,0,0,1,0.01740289878844692,0.18500000000000227)"><svg viewBox="0 0 367.96519115066525 56.629999999999995" height="56.629999999999995" width="367.96519115066525"><g><svg viewBox="0 0 367.96519115066525 56.629999999999995" height="56.629999999999995" width="367.96519115066525"><g><svg viewBox="0 0 367.96519115066525 56.629999999999995" height="56.629999999999995" width="367.96519115066525"><g id="textblocktransform"><svg viewBox="0 0 367.96519115066525 56.629999999999995" height="56.629999999999995" width="367.96519115066525" id="textblock"><g><svg viewBox="0 0 367.96519115066525 56.629999999999995" height="56.629999999999995" width="367.96519115066525"><g><svg><g></g><g></g></svg></g><g><svg><g><svg></svg></g><g></g></svg></g><g id="text-0"><svg viewBox="0 0 367.96519115066525 56.629999999999995" height="56.629999999999995" width="367.96519115066525"><g transform="matrix(1,0,0,1,0,10.814999999999998)"><svg width="205.99999999999994" viewBox="2.25 -35 205.99000549316406 35" height="35" data-palette-color="#ffffff"><path d="M24.05-35L31.85-4.9 40.15-35 43.4-35 33.15 0 30.1 0 22.55-29.8 14.3 0 11.2 0 2.25-35 5.4-35 13-5.05 21.25-35 24.05-35ZM67.6-35L67.35-32 52.8-32 52.8-18.85 66.3-18.85 66.05-15.85 52.8-15.85 52.8-3 68.6-3 68.35 0 49.4 0 49.4-35 67.6-35ZM97.5 0L94.2-9.25 78.8-9.25 75.6 0 72.35 0 85-35 88.05-35 101.15 0 97.5 0ZM86.35-31.2L79.65-11.75 93.3-11.75 86.35-31.2ZM116.14 0L112.99 0 112.99-32 103.09-32 103.34-35 125.99-35 125.74-32 116.14-32 116.14 0ZM134.64 0L131.49 0 131.49-35 134.64-35 134.64-18.85 151.64-18.85 151.64-35 154.79-35 154.79 0 151.64 0 151.64-15.85 134.64-15.85 134.64 0ZM179.79-35L179.54-32 164.99-32 164.99-18.85 178.49-18.85 178.24-15.85 164.99-15.85 164.99-3 180.79-3 180.54 0 161.59 0 161.59-35 179.79-35ZM205.64-25.6L205.64-25.6Q205.64-18.4 200.69-15.95L200.69-15.95 208.24 0 204.59 0 197.49-14.9Q195.69-14.6 193.54-14.6L193.54-14.6 189.69-14.6 189.69 0 186.29 0 186.29-35 193.54-35Q199.64-35 202.44-33.1L202.44-33.1Q205.64-30.95 205.64-25.6ZM193.29-32.25L189.69-32.25 189.69-17.35 193.29-17.35Q197.74-17.35 199.99-19.15 202.24-20.95 202.24-25.4L202.24-25.4Q202.24-31.1 197.04-32L197.04-32Q195.39-32.25 193.29-32.25L193.29-32.25Z" opacity="1" transform="matrix(1,0,0,1,0,0)" fill="#ffffff" class="undefined-p-0"></path></svg></g><g><svg version="1.0" xmlns="http://www.w3.org/2000/svg" xmlns:xlink="http://www.w3.org/1999/xlink" x="219.36999999999995" y="0" viewBox="0 0 98.93199920654297 100" enable-background="new 0 0 98.933 100" xml:space="preserve" width="56.025191150665286" height="56.629999999999995" class="icon-s-0" data-fill-palette-color="accent" id="s-0"><path d="M22.714 32.172l0.803-1.124c0.168-0.233 0.36-0.456 0.536-0.688l0.027 0.063 0.93-1.113c1.218-1.464 2.606-2.883 4.054-4.104l1.114-0.94-0.053-0.026c0.202-0.151 0.393-0.324 0.598-0.474l1.1-0.806-17.286-8.352 0.965 2.071L22.714 32.172z" fill="#08c076" data-fill-palette-color="accent"></path><path d="M17.846 55.055c-0.042-0.267-0.06-0.542-0.096-0.812l0.076 0.025-0.128-1.449c-0.081-0.938-0.13-1.878-0.13-2.819 0-0.998 0.045-1.984 0.13-2.958l0.132-1.459-0.078 0.032c0.035-0.273 0.052-0.545 0.094-0.812l0.217-1.359-1.282 0.46L0 49.929l18.058 6.48L17.846 55.055z" fill="#08c076" data-fill-palette-color="accent"></path><path d="M45.2 17.936l-0.027 0.081 1.434-0.133c0.948-0.082 1.899-0.131 2.859-0.131 0.96 0 1.912 0.049 2.86 0.131l1.433 0.133-0.028-0.081c0.269 0.037 0.542 0.054 0.808 0.098l1.339 0.219L49.465 0l-0.759 2.163-5.656 16.089 1.344-0.219C44.66 17.99 44.933 17.973 45.2 17.936z" fill="#08c076" data-fill-palette-color="accent"></path><path d="M68.833 24.266h-0.007l0.263 0.223c0.54 0.426 1.031 0.906 1.541 1.366 0.936 0.838 1.823 1.735 2.657 2.676 0.437 0.492 0.885 0.971 1.29 1.49l0.337 0.411 0.006-0.012c0.162 0.211 0.337 0.412 0.493 0.63l0.795 1.118 8.27-17.568-2.057 0.995-15.312 7.372 1.1 0.801C68.424 23.923 68.624 24.101 68.833 24.266z" fill="#08c076" data-fill-palette-color="accent"></path><path d="M80.867 56.479l18.065-6.486-18.065-6.475 0.218 1.354c0.04 0.267 0.061 0.542 0.096 0.812l-0.078-0.032 0.131 1.459c0.08 0.956 0.13 1.919 0.13 2.89 0 0.968-0.05 1.932-0.13 2.887l-0.131 1.456 0.078-0.029c-0.035 0.271-0.056 0.545-0.096 0.812L80.867 56.479z" fill="#08c076" data-fill-palette-color="accent"></path><path d="M53.734 82.062l0.028-0.081-1.438 0.133c-0.948 0.082-1.899 0.132-2.86 0.132-0.96 0-1.911-0.05-2.859-0.132l-1.438-0.133 0.029 0.081c-0.267-0.039-0.539-0.058-0.802-0.1l-1.339-0.214 0.452 1.29L49.461 100l6.415-18.255-1.339 0.217C54.273 82.004 54.002 82.022 53.734 82.062z" fill="#08c076" data-fill-palette-color="accent"></path><path d="M75.413 68.945c-0.147 0.21-0.316 0.4-0.47 0.605l-0.023-0.053-0.931 1.126c-1 1.212-2.126 2.379-3.289 3.442-0.597 0.536-1.168 1.107-1.801 1.597-0.212 0.162-0.411 0.34-0.626 0.5l-1.093 0.802 17.309 8.369-8.281-17.495L75.413 68.945z" fill="#08c076" data-fill-palette-color="accent"></path><path d="M30.035 75.682l0.062-0.029-1.096-0.931c-1.431-1.211-2.792-2.588-3.991-4.033l-0.925-1.111-0.029 0.062c-0.176-0.234-0.369-0.455-0.539-0.693l-0.798-1.114-0.582 1.242-7.601 16.231 17.295-8.268-1.109-0.809C30.486 76.059 30.265 75.862 30.035 75.682z" fill="#08c076" data-fill-palette-color="accent"></path><path d="M72.22 66.818c3.675-5.083 5.455-10.983 5.455-16.826 0-8.768-3.993-17.423-11.521-23.006-5.028-3.726-10.864-5.52-16.647-5.52-8.672 0-17.233 4.034-22.751 11.65-3.687 5.07-5.461 10.979-5.461 16.827 0 8.765 3.991 17.425 11.525 23.005 5.015 3.716 10.859 5.518 16.641 5.518C58.133 78.467 66.699 74.43 72.22 66.818z" fill="#08c076" data-fill-palette-color="accent"></path></svg></g><g transform="matrix(1,0,0,1,288.76519115066526,10.814999999999998)"><svg width="79.19999999999999" viewBox="2.25 -35 79.19999694824219 35" height="35" data-palette-color="#ffffff"><path d="M27.4 0L24.1-9.25 8.7-9.25 5.5 0 2.25 0 14.9-35 17.95-35 31.05 0 27.4 0ZM16.25-31.2L9.55-11.75 23.2-11.75 16.25-31.2ZM40.25 0L36.85 0 36.85-35 44.1-35Q50.25-35 53-33.05L53-33.05Q56.2-30.8 56.2-25.35L56.2-25.35Q56.2-16.25 49.2-14.25L49.2-14.25Q46.95-13.6 44.1-13.6L44.1-13.6 40.25-13.6 40.25 0ZM43.85-32.25L40.25-32.25 40.25-16.35 43.85-16.35Q48.35-16.35 50.57-18.32 52.8-20.3 52.8-24.78 52.8-29.25 50.57-30.75 48.35-32.25 43.85-32.25L43.85-32.25ZM65.5 0L62.1 0 62.1-35 69.34-35Q75.5-35 78.25-33.05L78.25-33.05Q81.45-30.8 81.45-25.35L81.45-25.35Q81.45-16.25 74.45-14.25L74.45-14.25Q72.2-13.6 69.34-13.6L69.34-13.6 65.5-13.6 65.5 0ZM69.09-32.25L65.5-32.25 65.5-16.35 69.09-16.35Q73.59-16.35 75.82-18.32 78.05-20.3 78.05-24.78 78.05-29.25 75.82-30.75 73.59-32.25 69.09-32.25L69.09-32.25Z" opacity="1" transform="matrix(1,0,0,1,0,0)" fill="#ffffff" class="undefined-p-1"></path></svg></g></svg></g></svg></g></svg></g></svg></g></svg></g><defs></defs></svg><rect width="367.96519115066525" height="56.629999999999995" fill="none" stroke="none" visibility="hidden"></rect></g></svg></g></svg>